# Blender 4.2.1 LTS
# www.blender.org
mtllib tri-col.mtl
o Circle
v 0.030000 0.000000 -0.448038
v -0.030000 0.000000 -0.448038
v 0.025828 0.000000 -0.454376
v 0.021213 0.000000 -0.459717
v 0.016236 0.000000 -0.463968
v 0.010981 0.000000 -0.467058
v 0.005538 0.000000 -0.468933
v 0.000000 0.000000 -0.469562
v -0.005538 0.000000 -0.468933
v -0.010981 0.000000 -0.467058
v -0.016236 0.000000 -0.463968
v -0.021213 0.000000 -0.459717
v -0.025828 0.000000 -0.454376
v -0.373013 0.000000 0.250000
v -0.403013 0.000000 0.198038
v -0.380588 0.000000 0.249555
v -0.387520 0.000000 0.248229
v -0.393690 0.000000 0.246045
v -0.398993 0.000000 0.243038
v -0.403339 0.000000 0.239262
v -0.406652 0.000000 0.234781
v -0.408877 0.000000 0.229671
v -0.409974 0.000000 0.224019
v -0.409926 0.000000 0.217923
v -0.408733 0.000000 0.211487
v -0.406415 0.000000 0.204821
v 0.403013 0.000000 0.198038
v 0.373013 0.000000 0.250000
v 0.406415 0.000000 0.204821
v 0.408733 0.000000 0.211487
v 0.409926 0.000000 0.217923
v 0.409974 0.000000 0.224019
v 0.408877 0.000000 0.229671
v 0.406652 0.000000 0.234781
v 0.403339 0.000000 0.239262
v 0.398993 0.000000 0.243038
v 0.393690 0.000000 0.246045
v 0.387520 0.000000 0.248229
v 0.380588 0.000000 0.249555
vn -0.0000 1.0000 -0.0000
vt 0.000000 0.000000
s 0
f 15/1/1 26/1/1 25/1/1 24/1/1 23/1/1 22/1/1 21/1/1 20/1/1 19/1/1 18/1/1 17/1/1 16/1/1 14/1/1 28/1/1 39/1/1 38/1/1 37/1/1 36/1/1 35/1/1 34/1/1 33/1/1 32/1/1 31/1/1 30/1/1 29/1/1 27/1/1 1/1/1 3/1/1 4/1/1 5/1/1 6/1/1 7/1/1 8/1/1 9/1/1 10/1/1 11/1/1 12/1/1 13/1/1 2/1/1
